<?xml version="1.0" encoding="utf-8"?>
<!-- Generator: Adobe Illustrator 22.0.1, SVG Export Plug-In . SVG Version: 6.00 Build 0)  -->
<svg version="1.1" id="Layer_1" xmlns="http://www.w3.org/2000/svg" xmlns:xlink="http://www.w3.org/1999/xlink" x="0px" y="0px"
	 viewBox="0 0 512 512" style="enable-background:new 0 0 512 512;" xml:space="preserve">
<style type="text/css">
	.st0{fill:#B10A72;}
</style>
<path class="st0" d="M26.1,222.6c27.2,0,44.6-21,58.6-38c14-16.9,23.3-27.2,34.9-27.2c6.1,0,11,6.6,21.7,25.2
	c12.4,21.6,31.1,54.2,71.8,54.2c42,0,59.3-33,70.7-54.8c5-9.5,11.2-21.4,15.2-21.4c6.8,0,16.9,16.1,24.3,27.8
	c13.9,22,31.1,49.4,63.8,49.4c31.9,0,55.7-26.6,76.8-50.1c7.6-8.4,18.8-21,24.2-23.9c14.4-1.3,24.9-14,23.6-28.4
	c-1.2-13.3-12.3-23.5-25.7-23.7c-24.2,0-42.1,20-61,41.2c-10.3,11.5-29.3,32.7-38,32.7c-4.5-1.1-14.7-17.2-19.6-25
	c-13.9-22-32.8-52.2-68.4-52.2c-35.4,0-51,29.7-61.3,49.3c-11.6,22.1-15.9,26.8-24.5,26.8c-9,0-14.5-7-26.5-28
	c-12.5-21.7-29.6-51.4-67-51.4c-37.1,0-59.1,26.7-75.2,46.2c-5.5,6.6-14.6,17.7-18.6,19c-14.4,0.1-26,11.8-26,26.2
	C-0.1,211,11.7,222.6,26.1,222.6L26.1,222.6z M485.9,280.8c-24.2,0-42.1,20-61,41.2c-10.3,11.5-29.3,32.7-38,32.7
	c-4.5-1.1-14.7-17.2-19.6-25c-13.9-22-32.8-52.2-68.4-52.2c-35.4,0-51,29.7-61.3,49.3c-11.6,22.1-15.9,26.8-24.5,26.8
	c-9,0-14.5-7-26.5-27.9c-12.5-21.7-29.6-51.4-67-51.4c-37,0-59.1,26.7-75.1,46.2c-5.5,6.6-14.6,17.7-18.6,19
	C11.6,339.6,0,351.2,0,365.6c0,14.4,11.7,26.1,26.1,26.1c27.2,0,44.6-21,58.6-38c14-16.9,23.3-27.2,34.9-27.2
	c6.1,0,11,6.6,21.7,25.2c12.4,21.6,31.1,54.2,71.8,54.2c42,0,59.3-33,70.7-54.7c5-9.6,11.2-21.4,15.2-21.4
	c6.8,0,16.9,16.1,24.3,27.8c13.9,22,31.1,49.4,63.8,49.4c31.9,0,55.7-26.6,76.8-50.1c7.6-8.4,18.8-21,24.2-23.9
	c14.4-1,25.2-13.5,24.2-27.8C511.2,291.3,499.7,280.7,485.9,280.8L485.9,280.8z"/>
</svg>
