<?xml version="1.0" encoding="utf-8"?>
<!-- Generator: Adobe Illustrator 22.0.1, SVG Export Plug-In . SVG Version: 6.00 Build 0)  -->
<svg version="1.1" id="Layer_1" xmlns="http://www.w3.org/2000/svg" xmlns:xlink="http://www.w3.org/1999/xlink" x="0px" y="0px"
	 viewBox="0 0 512 512" style="enable-background:new 0 0 512 512;" xml:space="preserve">
<style type="text/css">
	.st0{fill:#B10A72;}
</style>
<path class="st0" d="M456,83.3c-9,14.8-19.9,35.7-19.5,50.8c-15.8-9.4-2-38.5,9-57.1c-0.4-0.2-0.7-0.4-1-0.6
	c-9.9-5.1-20.3-9.1-31-12c-4.5,16.9-9.3,41.5-4.3,56.5c-18.3-4.5-12.9-38-7.6-58.8c-13.2-1.9-26.7-0.4-39.3,4.3
	c3.2,17.2,9.4,41.3,20.3,52.5c-17.7,3.6-27.2-26.2-31.6-47.3c-9.3,5.2-17.9,11.5-25.6,18.8c7.4,15.6,18.9,35.9,31.6,43.8
	c-15.3,7.5-31-15.9-40.7-34.8c-14,14.6-28.4,33.4-43.8,56.6c-5.4-0.6-10.9-0.8-16.3-0.5c-5.1-0.1-12.1-0.2-16.6,0.5
	c-15.5-23.2-29.8-42-43.8-56.6c-9.7,18.9-25.3,42.2-40.7,34.8c12.7-7.9,24.2-28.2,31.6-43.8c-7.8-7.3-16.4-13.6-25.7-18.8
	c-4.4,21.1-13.9,50.9-31.7,47.3c10.9-11.3,17.1-35.4,20.3-52.5c-12.5-4.7-26-6.2-39.3-4.3c5.3,20.9,10.7,54.4-7.6,58.8
	c5-15,0.2-39.6-4.3-56.5c-9.8,2.5-20,6.4-31,12c-0.4,0.2-0.7,0.5-1,0.6c11,18.5,24.8,47.7,9,57.1C75.9,119,65,98.2,56,83.3
	c-59.5,40.3-70.3,134.3-38.6,177.3c10,13.1,47.7,55.1,85.4,23.2c37.7-31.8,2.7-73.6-13.6-77.2c-6.7,18.7,12.4,37.1-5.9,35.4
	c-44.8-6.5-45.4-51.3,5.9-89c46-31.8,83.1,35.4,83.1,35.4s-56.6-34.2-77.2-23c-20.6,11.2,1.2,16.5,9.4,31.2
	c8.2,14.7,48.3,32.4,44.2,45.4c-7.1,60.7,40.1,100.2,47.1,116.7c7.1,16.5,11.8,91.3,56.5,91.9h7.1c44.7-0.6,49.5-75.4,56.5-91.9
	c7.1-16.5,54.2-56,47.1-116.7c-4.1-13,35.9-30.6,44.2-45.4c8.3-14.7,30.1-20,9.4-31.2c-20.6-11.2-77.2,23-77.2,23
	s37.1-67.2,83.1-35.4c51.3,37.7,50.7,82.5,5.9,89c-18.3,1.8,0.9-16.6-5.9-35.4c-16.2,3.5-51.3,45.4-13.6,77.2
	c37.7,31.8,75.4-10.1,85.4-23.2C526.3,217.6,515.5,123.6,456,83.3L456,83.3z M153.7,220.8c-6.5-1.4-37.7-23.4-41.9-30.4
	c-4.2-7-10.3-14.8-9.8-16.2c3.1-8.7,62.2,14.7,62.2,27.2C164.3,210,163,222.7,153.7,220.8z M188.8,332.8
	c-5.1,2.4-22.6-27.1-26.9-38.1c-4.3-11,4-22.7,12-22.9C179,275.6,200,327.5,188.8,332.8z M246.7,440.5c-6.9,1.5-19.8-8-19.5-13.8
	c0.2-5.8,10.2-4.4,12.6-3.2C242.2,424.8,253.6,439.1,246.7,440.5z M265.3,440.5c-6.8-1.5,4.5-15.7,6.9-17c2.4-1.2,12.4-2.7,12.6,3.2
	C285,432.6,272.2,442,265.3,440.5z M409.9,174.2c0.5,1.4-5.6,9.3-9.8,16.2c-4.2,7-35.4,29-41.9,30.4c-9.2,2-10.6-10.7-10.6-19.4
	C347.7,188.9,406.8,165.4,409.9,174.2L409.9,174.2z M350,294.7c-4.3,11-21.7,40.5-26.9,38.1c-11.2-5.3,9.9-57.2,14.9-61.1
	C346,271.9,354.4,283.7,350,294.7L350,294.7z"/>
</svg>
