<?xml version="1.0" encoding="utf-8"?>
<!-- Generator: Adobe Illustrator 22.0.1, SVG Export Plug-In . SVG Version: 6.00 Build 0)  -->
<svg version="1.1" id="Layer_1" xmlns="http://www.w3.org/2000/svg" xmlns:xlink="http://www.w3.org/1999/xlink" x="0px" y="0px"
	 viewBox="0 0 512 512" style="enable-background:new 0 0 512 512;" xml:space="preserve">
<style type="text/css">
	.st0{fill:#B10A72;}
</style>
<path class="st0" d="M408.4,351.2c8.9-0.6,91-2.9,100.4-47.4c0.8-3.5-1.2-12.5-5.9-6.9c-55.6,33.4-106-13.5-106-13.5
	s88.2-81.6,74.3-158.4C457.3,48.3,339-19.4,303.9,5.1c53.9,29.4,84.4,100.4,84.4,100.4s-41.1,7.3-84.4-31.8
	c-15.5,87.3,89.2,93.1,107,95.5c11.8,1.6-24.8,67.9-37.7,80.7c-1.4,1.3-2.3,2.9-2.6,4.8c-15.4-8.9-63-34.2-114.5-34.2
	c-51.5,0-99.1,25.3-114.5,34.2c-0.3-1.8-1.2-3.5-2.6-4.8c-13-12.8-49.5-79.1-37.7-80.7c17.7-2.4,122.4-8.2,106.9-95.5
	c-43.2,39.2-84.4,31.8-84.4,31.8s30.5-71,84.4-100.4C173-19.4,54.7,48.3,40.8,125.1c-13.9,76.7,74.3,158.4,74.3,158.4
	S64.7,330.3,9.1,296.9c-4.7-5.7-6.6,3.3-5.9,6.9c9.4,44.5,91.6,46.8,100.4,47.4c9.6,0.7,23.7,15.5,18.8,22.1
	c-4.6,6.1-82.3,5-114.2-7.9c-2.1-0.9-7.4-1.1-2.6,5.1c19.8,27.4,123.3,28.4,122.5,32.2c-0.8,3.8-68.7,69.8-32.6,106.9
	c2.3,2.3,9.3,5,10.6-2.1c17.9-58.7,50.4-95.8,64.4-97.4c12.7-1.4,84.4,3.7,85.5,3.7c1.1,0.1,1.9,0,2-0.1c15-1.1,70.8-4.9,83.5-3.5
	c14,1.6,46.6,38.7,64.4,97.4c1.3,7.1,8.3,4.4,10.6,2.1c36.2-37-31.8-103-32.6-106.9c-0.8-3.7,102.7-4.8,122.5-32.2
	c4.8-6.2-0.4-6-2.6-5.1c-31.9,13-109.7,14-114.3,7.9C384.7,366.7,398.8,351.9,408.4,351.2L408.4,351.2z"/>
</svg>
