<?xml version="1.0" encoding="utf-8"?>
<!-- Generator: Adobe Illustrator 22.0.1, SVG Export Plug-In . SVG Version: 6.00 Build 0)  -->
<svg version="1.1" id="Layer_1" xmlns="http://www.w3.org/2000/svg" xmlns:xlink="http://www.w3.org/1999/xlink" x="0px" y="0px"
	 viewBox="0 0 512 512" style="enable-background:new 0 0 512 512;" xml:space="preserve">
<style type="text/css">
	.st0{fill:#B10A72;}
</style>
<g>
	<path class="st0" d="M454.6,131l-0.2,0c-19.7,1.4-39.2,3.6-58.7,6.5c-19.5,3-39,6.6-58.2,12.2c19.9,2.3,39.7,2.6,59.4,2.3
		c11.5-0.3,23.1-0.8,34.6-1.6c-6,5.7-12.2,11.2-17.9,17.2c-11.5,11.9-22.7,24.2-32.9,37.7c14.7-8.4,28.3-17.9,41.6-27.8
		c13.3-9.9,26.1-20.3,38.6-31.1c3.7-3.1,4.1-8.6,1-12.2C460.1,131.9,457.4,130.8,454.6,131L454.6,131z"/>
	<path class="st0" d="M331.1,144.7c0,0,28.5-95.5,142.5-139.2c-43.3-14.7-83.3,1.8-116,27.3c6.2,5,13.8,12.4,10.3,16.2
		c-4.6-5-13.6-7.1-20.3-8c-4.2,3.7-8.3,7.5-12.2,11.3c6.3,4.8,16.3,13.6,12.4,17.9c-5-5.4-14.9-7.4-21.8-8.2
		c-3.3,3.5-6.4,7.1-9.4,10.6c5.3,3.8,19.5,14.8,15,19.8c-5.7-6.1-17.6-7.9-24.3-8.4c-3.3,4.2-6.4,8.3-9.2,12.2
		c3.7,2.6,21.2,15.2,16.3,20.7c-5.8-6.3-18.3-8-24.9-8.4c-10.5,15.6-16.4,26.5-16.4,26.5h-34c0,0-6.1-11.4-17-27.5
		c-6.8,1.4-17,4.3-21.6,10.3c-5.2-4.8,9.2-17.8,13.6-21.6c-2.8-3.8-5.8-7.8-9-11.9c-6.5,1.1-19,4-24.2,10.8
		c-5.8-5.3,12.8-20.9,14.6-22.5c-2.6-3-5.2-6-7.9-9c-6.3,1-19.5,3.8-24.9,10.9c-5.4-4.9,10.5-19,14.2-22.1c-2.9-2.8-5.8-5.6-8.9-8.4
		c-4.2,0.5-21,3-27.3,11.2c-5.5-5.1,11.2-19.6,14.3-22.2C122,7.5,81.9-9.2,38.4,5.5c114,43.7,142.5,139.2,142.5,139.2
		s-2.4,2.4-5.7,6.5c-19-5.5-38.2-9.1-57.4-12c-19.5-2.9-39.1-5.1-58.7-6.5l-0.3,0c-4.8-0.3-8.9,3.4-9.2,8.2c-0.2,2.7,0.9,5.3,3,7.1
		c12.5,10.9,25.4,21.2,38.6,31.1c13.3,9.9,26.9,19.5,41.5,27.8c-10.2-13.5-21.4-25.7-32.9-37.7c-5.7-6-11.9-11.5-17.9-17.2
		c11.5,0.8,23,1.3,34.6,1.6c19.4,0.4,38.8,0,58.4-2.2c-7.4,9.2-19.7,27.3-25,51.9c-17.8,66.1,41.6,90.3,52.7,123.4
		c11.1,33.1,15.5,97.6,25.2,102.9c9.6,5.3,14.8,52.1,12.3,71c8-6.7,5-73.8,8-70c3.1,3.9,7.5,81.3,7.5,81.3l0.3-5.4
		c0.2,3.3,0.3,5.4,0.3,5.4s4.4-77.4,7.5-81.3c3-3.9,0,63.3,8,70c-2.5-18.9,4.4-67.9,14-73.5c9.7-5.6,12.3-67.3,23.4-100.4
		c11.1-33.1,70.5-57.4,52.7-123.4C354.3,167.3,331.1,144.7,331.1,144.7z M192.1,300c0,0-32.6-33.7-32.8-40.7
		c-1.4-3.6,29.7-1.6,34.7,8.4C199,277.7,192.1,300,192.1,300z M319.9,300c0,0-8.4-21.5-3.4-31.4c5-10,37.6-12.9,36.2-9.3
		C352.5,266.3,319.9,300,319.9,300z"/>
</g>
</svg>
