<?xml version="1.0" encoding="UTF-8" standalone="no"?>
<svg
   xmlns:dc="http://purl.org/dc/elements/1.1/"
   xmlns:cc="http://creativecommons.org/ns#"
   xmlns:rdf="http://www.w3.org/1999/02/22-rdf-syntax-ns#"
   xmlns:svg="http://www.w3.org/2000/svg"
   xmlns="http://www.w3.org/2000/svg"
   viewBox="0 0 391.57333 561.33331"
   height="561.33331"
   width="391.57333"
   xml:space="preserve"
   id="svg2"
   version="1.1"><metadata
     id="metadata8"><rdf:RDF><cc:Work
         rdf:about=""><dc:format>image/svg+xml</dc:format><dc:type
           rdf:resource="http://purl.org/dc/dcmitype/StillImage" /></cc:Work></rdf:RDF></metadata><defs
     id="defs6"><clipPath
       id="clipPath18"
       clipPathUnits="userSpaceOnUse"><path
         id="path16"
         d="M 0,421 H 293.68 V 0 H 0 Z" /></clipPath></defs><g
     transform="matrix(1.3333333,0,0,-1.3333333,0,561.33333)"
     id="g10"><g
       id="g12"><g
         clip-path="url(#clipPath18)"
         id="g14"><g
           transform="translate(45.0625,81.3712)"
           id="g20"><path
             id="path22"
             style="fill:#4a2363;fill-opacity:1;fill-rule:nonzero;stroke:none"
             d="m 0,0 c 0.828,0.566 1.789,0.922 2.758,0.922 h 198.039 c 0.969,0 1.93,-0.356 2.758,-0.922 27.754,26.727 45.062,64.234 45.062,105.719 0,80.965 -65.871,146.836 -146.84,146.836 -80.968,0 -146.84,-65.871 -146.84,-146.836 C -45.063,64.23 -27.754,26.727 0,0" /></g><g
           transform="translate(76.4922,82.2931)"
           id="g24"><path
             id="path26"
             style="fill:#794091;fill-opacity:1;fill-rule:nonzero;stroke:none"
             d="m 0,0 h 140.695 c 34.055,22.742 56.485,61.523 56.485,105.547 0,70.047 -56.785,126.832 -126.832,126.832 -70.047,0 -126.836,-56.785 -126.836,-126.832 C -56.488,61.523 -34.055,22.742 0,0" /></g><g
           transform="translate(25.9258,186.1212)"
           id="g28"><path
             id="path30"
             style="fill:#62317c;fill-opacity:1;fill-rule:nonzero;stroke:none"
             d="m 0,0 c 5.336,0 10.41,-1.109 15.012,-3.105 -0.059,1.601 -0.098,3.207 -0.098,4.824 0,66.539 51.242,121.105 116.414,126.402 -3.433,0.281 -6.906,0.43 -10.414,0.43 -70.051,0 -126.836,-56.785 -126.836,-126.832 0,-0.731 0.024,-1.453 0.035,-2.18 C -3.969,-0.156 -2.004,0 0,0" /></g><g
           transform="translate(184.0664,82.2931)"
           id="g32"><path
             id="path34"
             style="fill:#924eb5;fill-opacity:1;fill-rule:nonzero;stroke:none"
             d="m 0,0 h 33.09 c 23.23,15.508 41.062,38.469 50.051,65.48 -0.59,0.04 -1.188,0.067 -1.789,0.067 -4.567,0 -8.86,-1.176 -12.594,-3.231 C 64.301,70.367 55.723,75.82 45.871,75.82 31.641,75.82 20.074,64.445 19.742,50.293 14.84,52.297 9.477,53.41 3.855,53.41 -7.965,53.41 -18.633,48.523 -26.27,40.672 -11.266,33.035 -0.785,17.762 0,0" /></g><g
           transform="translate(76.4883,82.2931)"
           id="g36"><path
             id="path38"
             style="fill:#ffffff;fill-opacity:1;fill-rule:nonzero;stroke:none"
             d="M 0,0 H 108.578 C 107.453,26.078 85.965,46.871 59.613,46.871 52.691,46.871 46.105,45.43 40.133,42.84 31.652,57 16.164,66.48 -1.543,66.48 c -3.867,0 -7.621,-0.464 -11.227,-1.316 0.008,0.281 0.02,0.563 0.02,0.852 0,20.882 -16.93,37.812 -37.813,37.812 -2.003,0 -3.972,-0.156 -5.894,-0.457 C -55.727,60.25 -33.488,22.367 0,0" /></g><g
           transform="translate(76.4883,82.2931)"
           id="g40"><path
             id="path42"
             style="fill:#eef6ff;fill-opacity:1;fill-rule:nonzero;stroke:none"
             d="m 0,0 h 20.824 c -32.808,21.906 -54.828,58.703 -56.394,100.734 -4.598,1.989 -9.664,3.094 -14.993,3.094 -2.003,0 -3.972,-0.156 -5.894,-0.461 C -55.727,60.25 -33.488,22.367 0,0" /></g><g
           transform="translate(258.7422,42.8751)"
           id="g44"><path
             id="path46"
             style="fill:#293d7c;fill-opacity:1;fill-rule:nonzero;stroke:none"
             d="m 0,0 -6.926,35.512 c -0.523,2.699 -3.207,4.906 -5.957,4.906 h -198.039 c -2.75,0 -5.433,-2.207 -5.957,-4.906 L -223.805,0 Z" /></g><g
           transform="translate(66.0703,42.8751)"
           id="g48"><path
             id="path50"
             style="fill:#1a2b63;fill-opacity:1;fill-rule:nonzero;stroke:none"
             d="m 0,0 6.926,35.512 c 0.523,2.699 3.207,4.906 5.957,4.906 h -31.137 c -2.75,0 -5.43,-2.207 -5.957,-4.906 L -31.137,0 Z" /></g><g
           transform="translate(277.7852,1e-4)"
           id="g52"><path
             id="path54"
             style="fill:#445ea0;fill-opacity:1;fill-rule:nonzero;stroke:none"
             d="m 0,0 v 33.875 c 0,5.5 -4.5,10 -10,10 h -241.891 c -5.5,0 -10,-4.5 -10,-10 l 0,-33.875 z" /></g><g
           transform="translate(46.9492,1e-4)"
           id="g56"><path
             id="path58"
             style="fill:#2e4c89;fill-opacity:1;fill-rule:nonzero;stroke:none"
             d="m 0,0 v 33.875 c 0,5.5 4.5,10 10,10 h -31.055 c -5.5,0 -10,-4.5 -10,-10 V 0 Z" /></g><g
           transform="translate(217.6641,213.6603)"
           id="g60"><path
             id="path62"
             style="fill:#ffffff;fill-opacity:1;fill-rule:nonzero;stroke:none"
             d="m 0,0 c -1.926,0 -3.598,1.336 -4.027,3.219 -3.328,14.73 -5.188,16.597 -19.922,19.926 -1.887,0.425 -3.219,2.093 -3.219,4.023 0,1.934 1.336,3.605 3.219,4.027 14.734,3.328 16.594,5.192 19.922,19.926 0.425,1.883 2.101,3.223 4.027,3.219 1.934,0.004 3.602,-1.336 4.027,-3.219 3.332,-14.734 5.192,-16.594 19.926,-19.922 1.883,-0.426 3.219,-2.094 3.223,-4.031 -0.004,-1.93 -1.34,-3.602 -3.223,-4.023 C 9.219,19.816 7.359,17.953 4.027,3.223 3.605,1.336 1.934,0 0,0" /></g><g
           transform="translate(155.0117,256.6603)"
           id="g64"><path
             id="path66"
             style="fill:#f87eab;fill-opacity:1;fill-rule:nonzero;stroke:none"
             d="m 0,0 c -1.289,0 -2.41,0.895 -2.695,2.152 -2.227,9.852 -3.469,11.098 -13.325,13.325 -1.261,0.285 -2.152,1.402 -2.152,2.691 0,1.293 0.895,2.41 2.152,2.695 9.856,2.223 11.098,3.469 13.325,13.325 C -2.41,35.445 -1.289,36.34 0,36.336 1.289,36.34 2.406,35.445 2.691,34.188 4.918,24.332 6.164,23.09 16.016,20.863 17.273,20.578 18.168,19.465 18.172,18.168 18.168,16.879 17.273,15.762 16.016,15.477 6.164,13.25 4.918,12.004 2.691,2.152 2.406,0.895 1.289,0 0,0" /></g><g
           transform="translate(113.0117,297.0001)"
           id="g68"><path
             id="path70"
             style="fill:#ffffff;fill-opacity:1;fill-rule:nonzero;stroke:none"
             d="m 0,0 c -1.789,0 -3.336,1.238 -3.734,2.98 -3.082,13.649 -4.805,15.375 -18.457,18.457 -1.746,0.399 -2.981,1.946 -2.981,3.731 0,1.793 1.238,3.34 2.981,3.73 13.652,3.082 15.375,4.809 18.457,18.457 0.394,1.747 1.945,2.985 3.73,2.985 1.789,0 3.336,-1.238 3.731,-2.985 C 6.812,33.707 8.535,31.984 22.187,28.902 23.93,28.508 25.168,26.965 25.172,25.168 25.168,23.383 23.93,21.832 22.187,21.437 8.539,18.355 6.812,16.629 3.727,2.984 3.336,1.238 1.785,0 0,0" /></g><g
           transform="translate(150.625,366.6603)"
           id="g72"><path
             id="path74"
             style="fill:#ffd00d;fill-opacity:1;fill-rule:nonzero;stroke:none"
             d="m 0,0 c -1.926,0 -3.598,1.336 -4.027,3.219 -3.328,14.73 -5.188,16.597 -19.922,19.926 -1.887,0.425 -3.219,2.093 -3.219,4.023 0,1.934 1.336,3.605 3.219,4.027 14.734,3.328 16.594,5.192 19.922,19.926 0.425,1.883 2.101,3.223 4.027,3.219 1.934,0.004 3.605,-1.336 4.027,-3.219 3.332,-14.734 5.192,-16.594 19.926,-19.922 1.883,-0.426 3.219,-2.094 3.223,-4.031 -0.004,-1.93 -1.34,-3.602 -3.223,-4.023 C 9.219,19.816 7.359,17.953 4.027,3.223 3.605,1.336 1.934,0 0,0" /></g><g
           transform="translate(202.668,330.6603)"
           id="g76"><path
             id="path78"
             style="fill:#ffc987;fill-opacity:1;fill-rule:nonzero;stroke:none"
             d="m 0,0 c -1.504,0 -2.809,1.039 -3.141,2.508 -2.593,11.48 -4.043,12.93 -15.523,15.523 -1.469,0.332 -2.508,1.633 -2.508,3.137 0,1.508 1.043,2.812 2.508,3.141 11.48,2.593 12.93,4.043 15.523,15.523 0.332,1.469 1.637,2.512 3.141,2.508 1.504,0.004 2.805,-1.039 3.137,-2.508 C 5.73,28.352 7.18,26.902 18.66,24.309 20.125,23.977 21.168,22.676 21.172,21.168 21.168,19.664 20.125,18.363 18.66,18.031 7.18,15.438 5.73,13.984 3.133,2.508 2.805,1.039 1.504,0 0,0" /></g><g
           transform="translate(185.9023,191.2384)"
           id="g80"><path
             id="path82"
             style="fill:#ff9518;fill-opacity:1;fill-rule:nonzero;stroke:none"
             d="m 0,0 c -1.168,-1.168 -3.074,-1.168 -4.242,0 l -7.699,7.699 c -1.168,1.164 -1.168,3.074 0,4.242 l 7.699,7.7 c 1.168,1.164 3.078,1.164 4.242,0 l 7.699,-7.7 c 1.168,-1.168 1.168,-3.078 0,-4.242 z" /></g><g
           transform="translate(206.0195,286.2384)"
           id="g84"><path
             id="path86"
             style="fill:#ff9518;fill-opacity:1;fill-rule:nonzero;stroke:none"
             d="m 0,0 c -1.168,-1.168 -3.074,-1.168 -4.242,0 l -9.199,9.199 c -1.168,1.164 -1.168,3.074 0,4.242 l 9.199,9.2 c 1.168,1.164 3.078,1.164 4.242,0 l 9.199,-9.2 c 1.168,-1.168 1.168,-3.078 0,-4.242 z" /></g></g></g></g></svg>