<?xml version="1.0" encoding="UTF-8" standalone="no"?>
<svg
   xmlns:dc="http://purl.org/dc/elements/1.1/"
   xmlns:cc="http://creativecommons.org/ns#"
   xmlns:rdf="http://www.w3.org/1999/02/22-rdf-syntax-ns#"
   xmlns:svg="http://www.w3.org/2000/svg"
   xmlns="http://www.w3.org/2000/svg"
   viewBox="0 0 356.03333 274.69067"
   height="274.69067"
   width="356.03333"
   xml:space="preserve"
   id="svg2"
   version="1.1"><metadata
     id="metadata8"><rdf:RDF><cc:Work
         rdf:about=""><dc:format>image/svg+xml</dc:format><dc:type
           rdf:resource="http://purl.org/dc/dcmitype/StillImage" /></cc:Work></rdf:RDF></metadata><defs
     id="defs6"><clipPath
       id="clipPath18"
       clipPathUnits="userSpaceOnUse"><path
         id="path16"
         d="M 0,206.018 H 267.025 V 0 H 0 Z" /></clipPath></defs><g
     transform="matrix(1.3333333,0,0,-1.3333333,0,274.69067)"
     id="g10"><g
       id="g12"><g
         clip-path="url(#clipPath18)"
         id="g14"><g
           transform="translate(267.0254,5)"
           id="g20"><path
             id="path22"
             style="fill:#fe3745;fill-opacity:1;fill-rule:nonzero;stroke:none"
             d="m 0,0 c 0,-2.75 -2.25,-5 -5,-5 h -257.025 c -2.75,0 -5,2.25 -5,5 v 196.018 c 0,2.75 2.25,5 5,5 H -5 c 2.75,0 5,-2.25 5,-5 z" /></g><g
           transform="translate(82.4961,151.917)"
           id="g24"><path
             id="path26"
             style="fill:#ffffff;fill-opacity:1;fill-rule:nonzero;stroke:none"
             d="m 0,0 c 0,5.5 3.897,7.75 8.66,5 l 84.713,-48.908 c 4.763,-2.75 4.763,-7.25 0,-10 L 8.66,-102.817 c -4.763,-2.75 -8.66,-0.5 -8.66,5 z" /></g><g
           transform="translate(102.3379,150.461)"
           id="g28"><path
             id="path30"
             style="fill:#d9eafc;fill-opacity:1;fill-rule:nonzero;stroke:none"
             d="m 0,0 -11.182,6.456 c -4.763,2.75 -8.66,0.5 -8.66,-5 v -97.817 c 0,-5.5 3.897,-7.75 8.66,-5 L 0,-94.905 Z" /></g><g
           transform="translate(251.5068,167.5059)"
           id="g32"><path
             id="path34"
             style="fill:#b7092b;fill-opacity:1;fill-rule:nonzero;stroke:none"
             d="m 0,0 c 0,-1.65 -1.35,-3 -3,-3 h -20.999 c -1.65,0 -3,1.35 -3,3 v 20.998 c 0,1.65 1.35,3 3,3 H -3 c 1.65,0 3,-1.35 3,-3 z" /></g><g
           transform="translate(251.5068,130.0079)"
           id="g36"><path
             id="path38"
             style="fill:#b7092b;fill-opacity:1;fill-rule:nonzero;stroke:none"
             d="m 0,0 c 0,-1.65 -1.35,-3 -3,-3 h -20.999 c -1.65,0 -3,1.35 -3,3 v 20.998 c 0,1.65 1.35,3 3,3 H -3 c 1.65,0 3,-1.35 3,-3 z" /></g><g
           transform="translate(251.5068,92.5098)"
           id="g40"><path
             id="path42"
             style="fill:#b7092b;fill-opacity:1;fill-rule:nonzero;stroke:none"
             d="m 0,0 c 0,-1.65 -1.35,-3 -3,-3 h -20.999 c -1.65,0 -3,1.35 -3,3 v 20.998 c 0,1.65 1.35,3 3,3 H -3 c 1.65,0 3,-1.35 3,-3 z" /></g><g
           transform="translate(251.5068,55.0118)"
           id="g44"><path
             id="path46"
             style="fill:#b7092b;fill-opacity:1;fill-rule:nonzero;stroke:none"
             d="m 0,0 c 0,-1.65 -1.35,-3 -3,-3 h -20.999 c -1.65,0 -3,1.35 -3,3 v 20.998 c 0,1.65 1.35,3 3,3 H -3 c 1.65,0 3,-1.35 3,-3 z" /></g><g
           transform="translate(251.5068,17.5142)"
           id="g48"><path
             id="path50"
             style="fill:#b7092b;fill-opacity:1;fill-rule:nonzero;stroke:none"
             d="m 0,0 c 0,-1.65 -1.35,-3 -3,-3 h -20.999 c -1.65,0 -3,1.35 -3,3 v 20.998 c 0,1.65 1.35,3 3,3 H -3 c 1.65,0 3,-1.35 3,-3 z" /></g><g
           transform="translate(42.5171,167.5059)"
           id="g52"><path
             id="path54"
             style="fill:#b7092b;fill-opacity:1;fill-rule:nonzero;stroke:none"
             d="m 0,0 c 0,-1.65 -1.35,-3 -3,-3 h -20.998 c -1.65,0 -3,1.35 -3,3 v 20.998 c 0,1.65 1.35,3 3,3 H -3 c 1.65,0 3,-1.35 3,-3 z" /></g><g
           transform="translate(42.5171,130.0079)"
           id="g56"><path
             id="path58"
             style="fill:#b7092b;fill-opacity:1;fill-rule:nonzero;stroke:none"
             d="m 0,0 c 0,-1.65 -1.35,-3 -3,-3 h -20.998 c -1.65,0 -3,1.35 -3,3 v 20.998 c 0,1.65 1.35,3 3,3 H -3 c 1.65,0 3,-1.35 3,-3 z" /></g><g
           transform="translate(42.5171,92.5098)"
           id="g60"><path
             id="path62"
             style="fill:#b7092b;fill-opacity:1;fill-rule:nonzero;stroke:none"
             d="m 0,0 c 0,-1.65 -1.35,-3 -3,-3 h -20.998 c -1.65,0 -3,1.35 -3,3 v 20.998 c 0,1.65 1.35,3 3,3 H -3 c 1.65,0 3,-1.35 3,-3 z" /></g><g
           transform="translate(42.5171,55.0118)"
           id="g64"><path
             id="path66"
             style="fill:#b7092b;fill-opacity:1;fill-rule:nonzero;stroke:none"
             d="m 0,0 c 0,-1.65 -1.35,-3 -3,-3 h -20.998 c -1.65,0 -3,1.35 -3,3 v 20.998 c 0,1.65 1.35,3 3,3 H -3 c 1.65,0 3,-1.35 3,-3 z" /></g><g
           transform="translate(42.5171,17.5142)"
           id="g68"><path
             id="path70"
             style="fill:#b7092b;fill-opacity:1;fill-rule:nonzero;stroke:none"
             d="m 0,0 c 0,-1.65 -1.35,-3 -3,-3 h -20.998 c -1.65,0 -3,1.35 -3,3 v 20.998 c 0,1.65 1.35,3 3,3 H -3 c 1.65,0 3,-1.35 3,-3 z" /></g></g></g></g></svg>