<?xml version="1.0" encoding="utf-8"?>
<!-- Generator: Adobe Illustrator 22.0.1, SVG Export Plug-In . SVG Version: 6.00 Build 0)  -->
<svg version="1.1" id="Layer_1" xmlns="http://www.w3.org/2000/svg" xmlns:xlink="http://www.w3.org/1999/xlink" x="0px" y="0px"
	 viewBox="0 0 512 512" style="enable-background:new 0 0 512 512;" xml:space="preserve">
<style type="text/css">
	.st0{fill:#B10A72;}
</style>
<path class="st0" d="M403.6,194c0,0,10.8-41.5,0-59.2c-10.8-17.7-73.8-46.9-73.8-46.9s29.2-65.4-63-70
	c50.8,26.9,35.4,57.7,35.4,57.7l-60,20c0,0-24.6-63.8-144.5-71.5C165.4,28,221.6,30.9,250,77.8c15-4.6,21-10.2,36.8-13.2
	c-4-36.4-51.9-51.6-70-55.8C198.6,4.5,96.9-10.2,64.9,14.4c-14.6,6.9-61.8,71.2-62,105C2.6,153.3,0,406.9,0,426.9
	c0,20,24.6,84.6,40.8,84.6h240.6c24.6-0.8-189.1-248-83.8-313.6c-56.9,97.6,65.3,215.3,86.1,232.2c20.8,16.9,89.9,24.6,99.1,23.1
	c9.2-1.6,36.9-57.7,36.9-64.6s-59.2-41.6-63.8-47.7c-4.6-6.1-55.1,5.1-55.1-17.2c0-22.3,48.2-33.6,66.6-27.4
	c18.4,6.2,64.6,46.9,75.3,47.7c10.8,0.8,66.8-69.2,69.2-86.1C514.3,240.9,403.6,194,403.6,194L403.6,194z M164.7,177.7
	c-3.7,2.1-8.1,4.8-12.5,8.6c-4.6,3.6-8.8,8.5-13,13.8c-3.6,5.7-7.2,12-8.8,19.5c-2.2,7.2-2,15.4-1.5,23.7c0.9,8.3,3.2,16.9,6.2,25.5
	l8.8,28.3c3.1,9.2,4.2,19.8,6.3,29.6c2.3,9.9,2.7,19.7,3.5,29c1.1,9.3,1.3,18.4,1.1,27c0.1,8.6,0,16.8-0.7,24.2
	c-0.8,15-3.1,27.3-4.3,35.9c-1.6,8.6-2.9,13.4-2.9,13.4l-0.7-13.6c-0.6-11.9-1.5-23.7-2.7-35.6c-1.4-14.6-2.8-31.6-6-49.5
	c-1.2-9.2-2.8-18.3-4.8-27.3c-2.2-9.2-3.1-18.3-6.5-27.8l-8-28c-3.1-9.7-4.9-19.9-5.4-30.1c-0.2-10.1,1-20.1,4.5-28.9
	c2.9-9,8.5-16.2,13.9-22.1c11.4-11.4,23.9-16.1,32.1-18.9c8.5-2.6,13.5-2.7,13.5-2.7S172.1,173.5,164.7,177.7L164.7,177.7z
	 M143.4,133.6c-10.6,4.8-22.9,11-33.4,19.7c-5.2,4.3-10,9.3-13.2,14.9c-2.2,2.6-2.5,5.8-4,8.7c-0.5,3.4-1.2,5.6-1.6,10
	c-0.8,8.2-2,16.3-3.6,24.4c-1.4,8-3.7,15.7-5.8,23c-3.9,13.5-9,26.5-15.3,39.1c-5.5,11-11.2,19.7-16,25.2c-1.8,2.2-4,4.1-6.3,5.7
	c-1.8,0.8-2.8,1.2-2.8,1.2l2.1-1.9c1.2-1.5,2.4-3.8,3.9-7c2.8-6.3,6-15.7,9.2-27c3.1-11.4,6.5-24.8,9.4-39.2
	c1.6-7.2,2.7-14.7,4-22.2c1.3-7.7,2.1-14.8,2.7-23c0.4-3.6,1.5-9.2,2.6-13.6c2-4.3,3.3-9.1,6.3-12.7c4.8-8.1,11.9-13.6,18.5-18.4
	c6.8-4.7,13.8-7.9,20.5-10.7c6.3-2.4,12.7-4.4,19.3-6c24.2-5.6,40.6-4.2,40.6-4.2S165,124.2,143.4,133.6L143.4,133.6z"/>
</svg>
