<?xml version="1.0" encoding="utf-8"?>
<!-- Generator: Adobe Illustrator 22.0.1, SVG Export Plug-In . SVG Version: 6.00 Build 0)  -->
<svg version="1.1" id="Layer_1" xmlns="http://www.w3.org/2000/svg" xmlns:xlink="http://www.w3.org/1999/xlink" x="0px" y="0px"
	 viewBox="0 0 512 512" style="enable-background:new 0 0 512 512;" xml:space="preserve">
<style type="text/css">
	.st0{fill:#B10A72;}
</style>
<path class="st0" d="M502.8,231.5L443.7,123h42.8c7.6,0,14.1-6.5,14.1-14.1c0-7.6-6.5-14.1-14.1-14.1H304.8
	c-7.6-27.1-36.3-42.8-63.5-35.3C224,64.4,211,78,206.1,94.8H25c-7.6,0-14.1,6.5-14.1,14.1c0,7.6,6.5,14.1,14.1,14.1h42.8L8.7,231.5
	c-5.4,2.2-9.2,7.6-8.7,13.6c0,50.4,41.2,91.7,91.7,91.7s91.7-41.2,91.7-91.7c0-6-3.8-10.8-8.7-13L115,122.5h92.2
	c4.9,16.8,17.9,30.4,35.3,35.3v203.9c-38,6.5-65.6,40.1-65.6,78.6c0,7.6,6.5,14.1,14.1,14.1h131.8c7.6,0,14.1-6.5,14.1-14.1
	c0-38.5-27.7-71.6-65.6-78.6V158.3c16.8-4.9,30.4-17.9,35.3-35.3h92.2l-60.7,108.5c-6,2.2-9.8,7.6-9.2,13.6
	c0,50.4,41.2,91.7,91.7,91.7c50.4,0,91.7-41.2,91.7-91.7C512,239.1,508.7,233.6,502.8,231.5L502.8,231.5z M142.1,230.4H41.3
	l50.4-92.7L142.1,230.4z M370.5,230.4l50.4-92.7l50.4,92.7H370.5z"/>
</svg>
