<?xml version="1.0" encoding="utf-8"?>
<!-- Generator: Adobe Illustrator 22.0.1, SVG Export Plug-In . SVG Version: 6.00 Build 0)  -->
<svg version="1.1" id="Layer_1" xmlns="http://www.w3.org/2000/svg" xmlns:xlink="http://www.w3.org/1999/xlink" x="0px" y="0px"
	 viewBox="0 0 512 512" style="enable-background:new 0 0 512 512;" xml:space="preserve">
<style type="text/css">
	.st0{fill:#B10A72;}
</style>
<path class="st0" d="M345.4,291.6c-50.7-0.5-143.4,42-166.3,32.2c-22.9-9.8-3.8-98.7-95.4-93.8c17.4,48.5-4.9,55.6-4.9,55.6
	s-31.1,26.2-72.5-45.8c-40.9,128.7,134.7,105.8,134.7,105.8s11.5,45.3,80.2,54c5.2,3.6,14,36.4,18.5,42.1S286,440,286,440
	s25.1-1.1,25.7-23.5c74.7,9.3,157.1-60,160.4-73.1c3.2-13.1-0.9-16.9-0.9-16.9S396.1,292.1,345.4,291.6L345.4,291.6z M385.8,372
	c-10.3,0-18.5-7.7-18.5-17.3s8.3-17.3,18.5-17.3c10.3,0,18.6,7.8,18.6,17.3S396,372,385.8,372L385.8,372z M371.1,166.4
	c0,0-11.4-45.3-80.2-54c-5.3-3.6-14-36.4-18.5-42.1C268,64.6,226,72,226,72s-25.1,1.1-25.6,23.5c-74.7-9.3-157.1,60-160.4,73.1
	c-3.3,13.1,0.9,16.9,0.9,16.9s75,34.4,125.8,34.9c50.7,0.5,143.4-42,166.3-32.2c22.9,9.8,3.8,98.7,95.4,93.8
	c-17.5-48.5,4.9-55.6,4.9-55.6s31.1-26.2,72.5,45.8C546.7,143.5,371.1,166.4,371.1,166.4z M126.3,174.7c-10.3,0-18.5-7.8-18.5-17.3
	S116,140,126.3,140s18.5,7.7,18.5,17.3C144.8,166.9,136.5,174.7,126.3,174.7z"/>
</svg>
