<?xml version="1.0" encoding="utf-8"?>
<!-- Generator: Adobe Illustrator 22.0.1, SVG Export Plug-In . SVG Version: 6.00 Build 0)  -->
<svg version="1.1" id="Layer_1" xmlns="http://www.w3.org/2000/svg" xmlns:xlink="http://www.w3.org/1999/xlink" x="0px" y="0px"
	 viewBox="0 0 512 512" style="enable-background:new 0 0 512 512;" xml:space="preserve">
<style type="text/css">
	.st0{fill:#B10A72;}
</style>
<path class="st0" d="M456.3,399.9l-3.9-287.7c4.2-2,7.6-4,9.6-6.4c15.8-18,23.7-91.4-21.3-103.2S399,44.1,399,50
	c24.4-17.5,28.8,1.9,24.1,17.8C418.5,83.7,321.8,53.2,281.6,90c-32.1,29.4-51.3,97.4-57.7,123.7l-109.8-104L156.5,94L15.9,44.9
	l53.3,138.2l16.5-53.3l106.7,101.7c-31.2,8.7-79.5,25.6-103.3,51.6C52.3,323.2,82.9,419.9,67,424.6s-35.3,0.3-17.8-24.2
	c-5.9-0.1-59.3-3.3-47.5,41.6C11.9,480.5,67,480.3,94,469.5h322.9l48.5,41.6l9-39.1l37.6-8.4L456.3,399.9L456.3,399.9z M335,143.2
	c14.1-9.9,64-15.6,97.6-24.4l3.7,275.2l-26.6-4.5l-148.8-141C275.4,224.4,318.6,154.8,335,143.2L335,143.2z M113.1,449.5
	c12-30.8,17.7-96.7,29.3-113.2c9.7-13.8,61-46.8,91.3-65.6l154,146.7l4.4,30.7l1.6,1.3L113.1,449.5L113.1,449.5z"/>
</svg>
