<?xml version="1.0" encoding="utf-8"?>
<!-- Generator: Adobe Illustrator 22.0.1, SVG Export Plug-In . SVG Version: 6.00 Build 0)  -->
<svg version="1.1" id="Layer_1" xmlns="http://www.w3.org/2000/svg" xmlns:xlink="http://www.w3.org/1999/xlink" x="0px" y="0px"
	 viewBox="0 0 512 512" style="enable-background:new 0 0 512 512;" xml:space="preserve">
<style type="text/css">
	.st0{fill:#B10A72;}
</style>
<g>
	<path class="st0" d="M125.3,282.2c3.2-0.8,6.5-1.3,9.8-1.6c6.7-0.7,13.4-1,20.1-0.6l8.6,0.3l0.7-8.8c0.2-2.1,0.9-5.3,2.1-8.3
		c1.1-3,2.6-6.1,4.3-9.1c3.4-6,7.5-11.5,12.3-16.5c9.3-10,21.4-16.8,34.2-16.9h5.5l1.6-4.5c2.1-6,6.6-11.2,12.8-15
		c6.1-3.9,13.4-6.7,21.1-8.6c15.3-4,31.7-5.2,48.2-5.4c-16.3-4-33.1-5.3-49.8-3.6c-8.5,1-17.1,3-25.4,6.9
		c-6.8,3.3-13.1,8.7-17.6,15.7c-7.4,0.1-14.7,1.8-21.5,4.8c-7.8,3.6-14.9,8.5-21.1,14.5c-6,5.9-11.1,12.6-15.4,19.8
		c-2.2,3.7-4,7.5-5.6,11.5c-0.7,1.8-1.3,3.6-1.8,5.4c-12.8,0.3-25.7,2.1-38,6.6c-14.6,5.6-28.2,14.5-38.3,26.2
		c-10.4,11.5-17.5,25.2-22.4,39.2c-4.7,14.1-7.4,28.8-7.1,43.3c3.5-14.1,8.5-27.5,15.1-39.9c6.4-12.4,14.5-23.8,24.4-33
		c9.7-9.1,21.3-15.9,33.9-19.9C119,283.9,122.1,282.8,125.3,282.2L125.3,282.2z"/>
	<path class="st0" d="M71.3,274.9c9.3-6.4,19.7-11,30.7-13.8c11-2.7,22.4-3.8,33.7-3.1l8.1,0.4l1.1-9c0.2-1.5,0.8-4.1,1.9-6.6
		c1-2.6,2.4-5.1,3.9-7.7c3.1-5.1,6.8-9.9,11.1-14c4.2-4.2,8.8-7.9,13.8-10.5c1.3-0.6,2.5-1.4,3.8-1.7c1.3-0.4,2.6-1.1,3.9-1.3
		c2.6-0.7,5.3-1,8-1.2l5.8-0.5l1.2-4c2.6-8.8,10.4-15.3,20.7-18.7c10.2-3.6,21.8-4.5,33.6-4.5c-11.3-4.3-23.5-5.9-35.6-4.5
		c-6.5,0.8-12.8,3-18.5,6.4c-4.5,2.9-8.2,6.8-11.1,11.2c-2.5,0-5,0.3-7.5,0.8c-2,0.3-3.8,1-5.7,1.5c-1.9,0.5-3.7,1.4-5.5,2.1
		c-6.9,3.2-13.3,7.4-18.8,12.6c-5.4,5.1-10.1,10.9-14.1,17.1c-2,3.2-3.8,6.6-5.3,10.1c-0.5,1.4-1.1,2.8-1.6,4.2
		c-4,0.1-8.1,0.3-12.1,0.8c-6.6,0.7-13.1,2-19.4,4c-12.6,4.1-24.6,10.4-34.5,19c-9.8,8.5-17.9,18.8-23.9,30.3
		c-5.8,11.3-10,23.3-11.4,35.7C37.7,307.5,52.6,288,71.3,274.9L71.3,274.9z"/>
	<path class="st0" d="M26,271.5c-4.6,11.2-7.5,23-7.4,34.7c7.3-22,20-41.6,37.3-53.9c8.6-6,18.4-10.3,28.6-12.7
		c5.2-1.2,10.4-2,15.7-2.4c5.3-0.5,10.7-0.4,16.1-0.2l8,0.3l1.2-8.8c0.1-0.7,0.9-3.9,1.9-6.2c1-2.5,2.4-5,3.8-7.4
		c3-4.8,6.7-9.1,10.9-12.6c2.1-1.7,4.3-3.5,6.7-4.8c2.3-1.5,4.9-2.5,7.4-3.6c2.6-0.8,5.2-1.7,8-2c2.7-0.7,5.6-0.5,8.4-0.8l5.8-0.8
		l1.1-3.5c1.9-6.3,10-11.2,19.2-13.6c9.2-2.7,19.4-3.7,29.7-4.3c-10-3.6-20.5-5.2-31.1-4.8c-5.4,0.3-11,1.2-16.7,3.6
		c-4.4,1.9-8.3,4.9-11.4,8.7c-2.3-0.2-4.7-0.1-7,0.3c-3.7,0.4-7.4,1-11,2.1c-3.6,1.1-7.1,2.5-10.4,4.2c-1.7,0.8-3.4,1.7-4.9,2.8
		c-1.6,1-3.2,2-4.6,3.2c-2.7,2.2-5.2,4.5-7.5,7c-22.9-7.5-116.3-41.9-72.4-94.8c49.8-60,107.5-56.1,107.5-56.1s38.7,30.5,52,21.9
		c-27.5-22.3-7.4-24.9-7.4-24.9s23.1-1.5,45,22.7c3.3-22-45-46.8-53.9-48c-8.9-1.2-20.8-6-37.6,7.8C127.9,16.1,51,38.4,12.3,91.2
		c-40.4,73.8,29.5,122.2,55.5,137c-7.5,3.3-14.3,7.8-20.4,13.3C38.2,249.8,30.9,260.1,26,271.5z M467.3,190.1
		c-29.2-16.1-46.3-5.9-63.7,2.3c-5,1.5-53.6-9-83.6-3.8c-29,5-90.3,31.7-94.3,33.5l-0.2,0.1c-0.1,0-0.2,0.1-0.2,0.1h0
		c-9,3.9-53,30.5-52,57c-2.4,2-5.5,4.5-8.3,6.8c-22,17.6-58.7,47.1-51.6,82.7c9,45.3,61.6,68.1,63.8,69c0,0-1,41.9,65.9,56.6
		c72.4,15.9,117-49.1,117-49.1s-92.7,42.1-106.1,12.4c-7-13.9,48.6-25.3,45.6-35.2c-24.3-8.3-62.5,1.5-61.5,8.4
		c-6-19.8-51.1-15.4-51.1-15.4s-43.8-18.9-50.3-51.4c-4.3-21.4,25.4-45.3,43.2-59.5c8.9-7.1,14-11.4,16.8-16
		c11.3,2.7,22.3,4.3,24.3,4.7l0.1-0.3c2.4,7,8.8,12.5,21.6,14.5c28.6,2.6,33.8-13.6,36.4-10.8c25.1,34,77,6,77,6s-63-6.9-54.4-34
		c8.5-27.1,46.3-17.5,54.4-11.3c5.9-24.7-57.1-24.5-58.2-17.3c-14.8-17-28.8-18.1-41.2-11.5c-2.2-0.7-4.5-1.3-6.8-1.9
		c9.9-4.2,42.2-17.3,72.4-22.4c36.2-6.2,87,9.7,86.8,20.5c-0.3,10.9,31.5,36,54.8,34.3c-18.3-19.3-21-33.2-11.4-38.7
		c9.7-5.5,44.4,13.2,59,38.7C515.6,240,496.6,206.3,467.3,190.1L467.3,190.1z"/>
</g>
</svg>
