<?xml version="1.0" encoding="utf-8"?>
<!-- Generator: Adobe Illustrator 22.0.1, SVG Export Plug-In . SVG Version: 6.00 Build 0)  -->
<svg version="1.1" id="Layer_1" xmlns="http://www.w3.org/2000/svg" xmlns:xlink="http://www.w3.org/1999/xlink" x="0px" y="0px"
	 viewBox="0 0 512 512" style="enable-background:new 0 0 512 512;" xml:space="preserve">
<style type="text/css">
	.st0{fill:#B10A72;}
</style>
<path class="st0" d="M400.9,0c20.8,127.4-24.2,122.2-24.2,122.2L257,117.7v-0.1l-1,0l-1,0v0.1l-119.7,4.5c0,0-45,5.2-24.2-122.2
	c-147,208.2,47.3,176.4,50.2,183.9c2.9,7.5-29.4,51.3-27.1,77.3c2.3,25.9,47.6,39.8,53.6,57.1c19.9,58.8-43.3,115.9,15.5,130.7
	c2.4,0.6,4.8,1.1,7.3,1.7c-5.9,27.4,11.6,54.4,39.1,60.3c3.5,0.7,7,1.1,10.5,1.1c28,0,50.7-22.7,50.7-50.7c0-4.3-0.6-8.5-1.6-12.5
	c57.6-15-4.9-71.9,14.9-130.5c6.1-17.3,51.3-31.1,53.7-57.1s-30-69.8-27.1-77.3C353.6,176.4,547.9,208.2,400.9,0L400.9,0z
	 M260.2,498.2c-20.4,0-36.9-16.5-36.9-36.9c0-2.8,0.4-5.6,1-8.2c13.6,2.1,26.1,3.1,30.7,3.5v0.1l1-0.1l1,0.1v-0.1
	c13-0.9,25.9-2.5,38.8-4.8c0.8,3,1.4,6.2,1.4,9.6C297.1,481.7,280.6,498.2,260.2,498.2z"/>
</svg>
