<?xml version="1.0" encoding="utf-8"?>
<!-- Generator: Adobe Illustrator 22.0.1, SVG Export Plug-In . SVG Version: 6.00 Build 0)  -->
<svg version="1.1" id="Layer_1" xmlns="http://www.w3.org/2000/svg" xmlns:xlink="http://www.w3.org/1999/xlink" x="0px" y="0px"
	 viewBox="0 0 512 512" style="enable-background:new 0 0 512 512;" xml:space="preserve">
<style type="text/css">
	.st0{fill:#B10A72;}
</style>
<g>
	<path class="st0" d="M425.5,149.4C408.2,86.2,383.6-2.2,253,0c-24.9,8.2,70.2,17.1,62.4,48.1C271.7,23,246,6.2,215.2,9
		c-30.8,2.8-44,30-42.9,49.7c24.9,13.1,57,116.2,67.3,138c10.3,21.8,28.3,55.1,46.8,65.2c18.4,10.1-25.6,74.1-62.9,75.7
		c-37.4,1.7-131.7,42.4-143,95.6c23-27,113.4-74.3,152.3-72.9c39,1.5,76.3-43.2,82.5-56c1.7,57.6-55.5,80-95.8,81
		c-57.9,1-144.9,56.2-134.6,89.9c10.8-29.1,83.5-63.2,131.6-65.4c48.1-2.2,92.8-27,115.7-47.3c-11.1,45.2-52.8,61.4-100.9,69.9
		c-48.1,8.6-144.7,35.1-143.2,79.4c18.7-27.5,104.3-53.7,196.8-59.7C377.4,446.3,454,259.5,425.5,149.4L425.5,149.4z M317.5,26.5
		c0,0,75.8,42.4,38.3,110.3C364.2,70.3,317.5,26.5,317.5,26.5z M370.5,73.8c0,0,82.6,113.8-14.7,169.7
		C416,167.5,370.5,73.8,370.5,73.8z"/>
	<path class="st0" d="M133.3,221.5c0.8,6.7-3.6,15.4-4.8,20.1c-1.1,4.8-7.6,3.1-6.7,9.8c0.8,6.7,8.9,9.3,8.9,9.3s-6.1,3.6-5.9,8.7
		c1.4,8.7,17.3,1.4,18.4,4.8c1.1,3.3,0.9,0.7-0.1,7.6s-13.6,9.2-6,26.8c9.9,23.1,114.7,9.8,139.8-36.6c-90-81.1-92-200.2-109.9-198
		c-17.9,2.2-33.6,77.1-34.1,94.5c-0.6,17.3-18.7,28.2-21,41.7C109.8,223.5,128.8,217.9,133.3,221.5L133.3,221.5z M138.3,159.6
		c1.1-3.2,26.6,4.8,26.6,8.5c0,3.6-18.7,4.2-23.2,3.6C140.1,171.5,134.6,169.6,138.3,159.6z"/>
</g>
</svg>
